{
  "accessors": [
    {
      "bufferView": 2,
      "componentType": 5126,
      "count": 581,
      "max": [
        45.86840057373047,
        2.628999948501587,
        14.893699645996094
      ],
      "min": [
        -45.86840057373047,
        -2.628999948501587,
        -14.893699645996094
      ],
      "type": "VEC3"
    },
    {
      "bufferView": 2,
      "byteOffset": 6972,
      "componentType": 5126,
      "count": 581,
      "max": [
        0.9991092681884766,
        0.9999909996986389,
        0.9998117685317993
      ],
      "min": [
        -0.9991092681884766,
        -0.9999929070472717,
        -0.9996774792671204
      ],
      "type": "VEC3"
    },
    {
      "bufferView": 3,
      "componentType": 5126,
      "count": 581,
      "max": [
        0.9584352970123291,
        0.9959869980812073,
        0.9839306473731995,
        1.0
      ],
      "min": [
        -0.9707695841789246,
        -0.8770836591720581,
        -0.9999126195907593,
        1.0
      ],
      "type": "VEC4"
    },
    {
      "bufferView": 1,
      "componentType": 5126,
      "count": 581,
      "max": [
        0.9865000247955322,
        0.9994999766349792
      ],
      "min": [
        0.0005000000237487257,
        0.0005000000237487257
      ],
      "type": "VEC2"
    },
    {
      "bufferView": 0,
      "componentType": 5125,
      "count": 1896,
      "type": "SCALAR"
    }
  ],
  "asset": {
    "extras": {
      "author": "George Hager (https://sketchfab.com/adjective.george)",
      "license": "CC-BY-4.0 (http://creativecommons.org/licenses/by/4.0/)",
      "source": "https://sketchfab.com/3d-models/crowbar-4cf60a8ae0ac40a4a985b0f00f9537be",
      "title": "Crowbar"
    },
    "generator": "Sketchfab-12.66.0",
    "version": "2.0"
  },
  "bufferViews": [
    {
      "buffer": 0,
      "byteLength": 7584,
      "name": "floatBufferViews",
      "target": 34963
    },
    {
      "buffer": 0,
      "byteLength": 4648,
      "byteOffset": 7584,
      "byteStride": 8,
      "name": "floatBufferViews",
      "target": 34962
    },
    {
      "buffer": 0,
      "byteLength": 13944,
      "byteOffset": 12232,
      "byteStride": 12,
      "name": "floatBufferViews",
      "target": 34962
    },
    {
      "buffer": 0,
      "byteLength": 9296,
      "byteOffset": 26176,
      "byteStride": 16,
      "name": "floatBufferViews",
      "target": 34962
    }
  ],
  "buffers": [
    {
      "byteLength": 35472,
      "uri": "scene.bin"
    }
  ],
  "images": [
    {
      "uri": "textures/01___Default_baseColor.jpeg"
    },
    {
      "uri": "textures/01___Default_metallicRoughness.png"
    },
    {
      "uri": "textures/01___Default_normal.png"
    }
  ],
  "materials": [
    {
      "doubleSided": true,
      "name": "01___Default",
      "normalTexture": {
        "index": 2
      },
      "occlusionTexture": {
        "index": 1
      },
      "pbrMetallicRoughness": {
        "baseColorTexture": {
          "index": 0
        },
        "metallicRoughnessTexture": {
          "index": 1
        }
      }
    }
  ],
  "meshes": [
    {
      "name": "defaultMaterial",
      "primitives": [
        {
          "attributes": {
            "NORMAL": 1,
            "POSITION": 0,
            "TANGENT": 2,
            "TEXCOORD_0": 3
          },
          "indices": 4,
          "material": 0,
          "mode": 4
        }
      ]
    }
  ],
  "nodes": [
    {
      "children": [
        1
      ],
      "matrix": [
        1.0,
        0.0,
        0.0,
        0.0,
        0.0,
        2.220446049250313e-16,
        -1.0,
        0.0,
        0.0,
        1.0,
        2.220446049250313e-16,
        0.0,
        0.0,
        0.0,
        0.0,
        1.0
      ],
      "name": "Sketchfab_model"
    },
    {
      "children": [
        2
      ],
      "matrix": [
        1.0,
        0.0,
        0.0,
        0.0,
        0.0,
        -4.371139006309477e-08,
        0.999999999999999,
        0.0,
        0.0,
        -0.999999999999999,
        -4.371139006309477e-08,
        0.0,
        0.0,
        0.0,
        0.0,
        1.0
      ],
      "name": "Collada visual scene group"
    },
    {
      "children": [
        3
      ],
      "name": "Crowbar_LP"
    },
    {
      "mesh": 0,
      "name": "defaultMaterial"
    }
  ],
  "samplers": [
    {
      "magFilter": 9729,
      "minFilter": 9987,
      "wrapS": 10497,
      "wrapT": 10497
    }
  ],
  "scene": 0,
  "scenes": [
    {
      "name": "Sketchfab_Scene",
      "nodes": [
        0
      ]
    }
  ],
  "textures": [
    {
      "sampler": 0,
      "source": 0
    },
    {
      "sampler": 0,
      "source": 1
    },
    {
      "sampler": 0,
      "source": 2
    }
  ]
}
